# xmcd
#
# Track frame offsets: 
#        150
#        7753
#        16282
#        28597
#        41860
#        53136
#        81451
#        86363
#        99350
#        113374
#        117555
#        128881
#        140786
#        146166
#        150453
#        164164
#        173364
#        186840
#        197892
#        204653
#        209715
#        217927
#        222215
#        235872
#        241586
#        252246
#
# Disc length: 3419 seconds
#
# Revision: 0
# Processed by: cddbd v1.5.2PL0 Copyright (c) Steve Scherf et al.
# Submitted via: ExactAudioCopy v0.95b3
#
DISCID=6e0d591a
DTITLE=Johnny Cash - Don't Take Your Guns To Town
DYEAR=2007
DGENRE=Country
TTITLE0=Hey Porter
TTITLE1=Luther Played The Boogie
TTITLE2=So Doggone Lonesome
TTITLE3=I Walk The Line
TTITLE4=I Got A Woman
TTITLE5=Impersonations
TTITLE6=Intro And Theme
TTITLE7=Hey Porter
TTITLE8=I Walk The Line
TTITLE9="Reserve For Youth Traning Progam" Spot
TTITLE10=Rock Island Line
TTITLE11=So Doggone Lonesome
TTITLE12=Closing
TTITLE13=Intro And Theme
TTITLE14=Folsom Prison Blues
TTITLE15=Cry, Cry, Cry
TTITLE16=I Was There When It Happened
TTITLE17=Get Rhytm
TTITLE18=Closing
TTITLE19=Intro
TTITLE20=Country Boy
TTITLE21=Chat With Johnny
TTITLE22=Don't Take Your Guns To Town
TTITLE23="Buy Saving Bonds" Spot
TTITLE24=Swing Low, Sweet Chariot
TTITLE25=Closing
EXTD=
EXTT0=
EXTT1=
EXTT2=
EXTT3=
EXTT4=
EXTT5=
EXTT6=
EXTT7=
EXTT8=
EXTT9=
EXTT10=
EXTT11=
EXTT12=
EXTT13=
EXTT14=
EXTT15=
EXTT16=
EXTT17=
EXTT18=
EXTT19=
EXTT20=
EXTT21=
EXTT22=
EXTT23=
EXTT24=
EXTT25=
PLAYORDER=
